<?xml version="1.0" encoding="UTF-8"?>
<svg id="Layer_2" data-name="Layer 2" xmlns="http://www.w3.org/2000/svg" viewBox="0 0 16.51 15.08">
  <defs>
    <style>
      .cls-1 {
        fill: #e1f9ff;
        stroke-width: .48px;
      }

      .cls-1, .cls-2, .cls-3, .cls-4 {
        stroke: #000;
        stroke-miterlimit: 10;
      }

      .cls-5 {
        fill: #f48978;
      }

      .cls-5, .cls-6, .cls-7 {
        stroke-width: 0px;
      }

      .cls-6 {
        fill: #000;
      }

      .cls-2 {
        fill: #fff;
        stroke-width: .22px;
      }

      .cls-3 {
        fill: #282828;
        stroke-width: .3px;
      }

      .cls-4 {
        fill: #ffe36c;
        stroke-width: .51px;
      }

      .cls-7 {
        fill: #f45858;
      }
    </style>
  </defs>
  <g id="Layer_1-2" data-name="Layer 1">
    <g id="_16px" data-name="16px">
      <path class="cls-1" d="M1.26,6.37C-.81.99,3.46-1.8,7.56,2.38L1.26,6.37Z"/>
      <path class="cls-1" d="M3.91,4.12C6.52-1.62,12.78-.82,13.03,5.38l-9.12-1.26Z"/>
      <path class="cls-4" d="M.25,9.17c0,3.37,2.96,5.66,6.65,5.66,3.69,0,7.97-2.29,7.97-5.66S10.7,3.39,7.01,3.39c-3.69,0-6.75,2.41-6.75,5.78Z"/>
      <circle class="cls-5" cx="1.83" cy="9.82" r=".51"/>
      <circle class="cls-5" cx="6.94" cy="9.82" r=".51"/>
      <path class="cls-6" d="M7.46,1.48c-.43,0-.78.35-.78.78,0,.1.02.2.06.29-.42.2-1.21,1.69-1.27,2.55-.04.65.64.52.69.16.21-1.13.52-1.8,1.04-2.27.08.03.17.05.26.05.43,0,.78-.35.78-.78s-.35-.78-.78-.78ZM6.75,2.59c.04.08.09.16.15.22-.08-.06-.15-.14-.15-.22Z"/>
      <path class="cls-6" d="M1.59,2.26c0,.43.35.78.78.78.09,0,.18-.02.26-.05.52.47.83,1.14,1.04,2.27.05.36.73.49.69-.16-.06-.86-.85-2.35-1.27-2.55.04-.09.06-.19.06-.29,0-.43-.35-.78-.78-.78s-.78.35-.78.78ZM2.93,2.81c.06-.06.12-.14.15-.22,0,.08-.07.16-.15.22Z"/>
      <path class="cls-6" d="M11.77,4.76c.99.66,1.53,7.04.41,8.7,0,0,1.13-.62,1.61-1.33.34-.47.48-4.65-.51-6.36l-1.5-1.01Z"/>
      <path class="cls-6" d="M9.39,3.84c1.19.81,1.83,8.54.49,10.55,0,0,1.32-.06,1.89-.92.41-.57.6-7.02-.59-9.1l-1.79-.52Z"/>
      <path class="cls-6" d="M14.79,7.96c.34.69.21,1.74.07,1.88,0,0,1.34-.68,1.5-.78s.23-.53,0-.66l-1.57-.44Z"/>
      <path class="cls-6" d="M3.79,8.21l-1.03-.68c-.09-.06-.21-.03-.27.06s-.03.21.06.27l.7.46-.82.26c-.1.03-.16.14-.13.24.03.1.14.16.24.13l1.18-.37s.04-.02.06-.03c.02-.01.04-.03.06-.06.06-.09.03-.21-.06-.27Z"/>
      <path class="cls-6" d="M5.13,8.21l1.03-.68c.09-.06.21-.03.27.06s.03.21-.06.27l-.7.46.82.26c.1.03.16.14.13.24-.03.1-.14.16-.24.13l-1.18-.37s-.04-.02-.06-.03c-.02-.01-.04-.03-.06-.06-.06-.09-.03-.21.06-.27Z"/>
      <path class="cls-3" d="M3.23,9.59c-.32,0-.51.41-.34.73.31.58.85.96,1.48.96s1.16-.38,1.48-.96c.17-.32-.02-.73-.34-.73h-2.27Z"/>
      <path class="cls-7" d="M5.42,10.65s-.88.98-1.91.17c-.12-.18,1.79-.38,1.91-.17Z"/>
      <path class="cls-2" d="M3.46,9.73h1.58c0,.59-1.6.81-1.58,0Z"/>
    </g>
  </g>
</svg>