<?xml version="1.0" encoding="UTF-8"?>
<svg id="Layer_2" data-name="Layer 2" xmlns="http://www.w3.org/2000/svg" viewBox="0 0 32.5 30.46">
  <defs>
    <style>
      .cls-1 {
        fill: #ffe36c;
        stroke-width: 1.01px;
      }

      .cls-1, .cls-2, .cls-3, .cls-4 {
        stroke: #000;
        stroke-miterlimit: 10;
      }

      .cls-2 {
        fill: #e1f9ff;
        stroke-width: .95px;
      }

      .cls-5 {
        fill: #f48978;
      }

      .cls-5, .cls-6, .cls-7 {
        stroke-width: 0px;
      }

      .cls-6 {
        fill: #000;
      }

      .cls-3 {
        fill: #fff;
        stroke-width: .44px;
      }

      .cls-7 {
        fill: #f45858;
      }

      .cls-4 {
        fill: #282828;
        stroke-width: .6px;
      }
    </style>
  </defs>
  <g id="Layer_1-2" data-name="Layer 1">
    <g id="_32px" data-name="32px">
      <path class="cls-2" d="M2.49,12.87C-1.59,1.99,6.81-3.64,14.88,4.8L2.49,12.87Z"/>
      <path class="cls-2" d="M7.7,8.32C12.84-3.28,25.15-1.67,25.65,10.87l-17.96-2.55Z"/>
      <path class="cls-1" d="M.5,18.52c0,6.81,5.82,11.44,13.08,11.44,7.26,0,15.69-4.63,15.69-11.44,0-6.81-8.22-11.67-15.48-11.67S.5,11.71.5,18.52Z"/>
      <ellipse class="cls-5" cx="3.61" cy="19.84" rx="1.01" ry="1.04"/>
      <ellipse class="cls-5" cx="13.67" cy="19.84" rx="1.01" ry="1.04"/>
      <path class="cls-6" d="M14.7,2.98c-.85,0-1.54.71-1.54,1.58,0,.21.04.41.11.59-.83.41-2.39,3.42-2.5,5.16-.08,1.31,1.27,1.05,1.36.32.42-2.29,1.03-3.64,2.05-4.59.16.06.34.09.52.09.85,0,1.54-.71,1.54-1.58s-.69-1.58-1.54-1.58ZM13.3,5.22c.08.17.18.32.3.45-.16-.13-.29-.28-.3-.45Z"/>
      <path class="cls-6" d="M3.14,4.56c0,.87.69,1.58,1.54,1.58.18,0,.36-.03.52-.09,1.02.94,1.63,2.3,2.05,4.59.09.73,1.44.99,1.36-.32-.11-1.74-1.67-4.75-2.5-5.16.07-.18.11-.38.11-.59,0-.87-.69-1.58-1.54-1.58s-1.54.71-1.54,1.58ZM5.77,5.67c.12-.13.23-.28.3-.45-.01.17-.14.32-.3.45Z"/>
      <path class="cls-6" d="M23.16,9.62c1.96,1.34,3.01,14.23.8,17.58,0,0,2.23-1.25,3.17-2.68.67-.95.94-9.39-1.01-12.86l-2.96-2.03Z"/>
      <path class="cls-6" d="M18.48,7.75c2.34,1.63,3.6,17.25.96,21.31,0,0,2.59-.12,3.72-1.87.8-1.15,1.18-14.18-1.15-18.39l-3.53-1.06Z"/>
      <path class="cls-6" d="M29.12,16.07c.67,1.39.41,3.52.14,3.8,0,0,2.63-1.37,2.95-1.57s.46-1.06,0-1.33l-3.09-.9Z"/>
      <path class="cls-6" d="M7.46,16.57l-2.03-1.37c-.17-.12-.41-.07-.53.11s-.07.42.11.54l1.38.93-1.61.52c-.2.06-.31.28-.25.49.06.2.28.32.48.25l2.32-.75s.08-.04.12-.07c.05-.03.09-.07.12-.12.11-.18.07-.42-.11-.54Z"/>
      <path class="cls-6" d="M10.11,16.57l2.03-1.37c.17-.12.41-.07.53.11s.07.42-.11.54l-1.38.93,1.61.52c.2.06.31.28.25.49-.06.2-.28.32-.48.25l-2.32-.75s-.08-.04-.12-.07c-.05-.03-.09-.07-.12-.12-.11-.18-.07-.42.11-.54Z"/>
      <path class="cls-4" d="M6.37,19.36c-.62,0-1.01.84-.67,1.47.61,1.16,1.68,1.93,2.9,1.93s2.29-.77,2.9-1.93c.33-.64-.05-1.47-.67-1.47h-4.46Z"/>
      <path class="cls-7" d="M10.68,21.52s-1.73,1.98-3.76.35c-.24-.36,3.51-.77,3.76-.35Z"/>
      <path class="cls-3" d="M6.82,19.65h3.12c0,1.18-3.14,1.63-3.12,0Z"/>
    </g>
  </g>
</svg>