<?xml version="1.0" encoding="UTF-8"?>
<svg id="Layer_2" data-name="Layer 2" xmlns="http://www.w3.org/2000/svg" viewBox="0 0 48.84 45.78">
  <defs>
    <style>
      .cls-1 {
        fill: #282828;
        stroke-width: .9px;
      }

      .cls-1, .cls-2, .cls-3, .cls-4 {
        stroke: #000;
        stroke-miterlimit: 10;
      }

      .cls-5 {
        fill: #f48978;
      }

      .cls-5, .cls-6, .cls-7 {
        stroke-width: 0px;
      }

      .cls-2 {
        fill: #ffe36c;
        stroke-width: 1.52px;
      }

      .cls-6 {
        fill: #000;
      }

      .cls-3 {
        fill: #e1f9ff;
        stroke-width: 1.42px;
      }

      .cls-4 {
        fill: #fff;
        stroke-width: .66px;
      }

      .cls-7 {
        fill: #f45858;
      }
    </style>
  </defs>
  <g id="Layer_1-2" data-name="Layer 1">
    <g id="_48px" data-name="48px">
      <path class="cls-3" d="M3.74,19.34C-2.4,2.99,10.24-5.47,22.36,7.21L3.74,19.34Z"/>
      <path class="cls-3" d="M11.57,12.5c7.73-17.43,26.23-15,26.98,3.84l-26.98-3.84Z"/>
      <path class="cls-2" d="M.76,27.83c0,10.24,8.75,17.19,19.66,17.19,10.91,0,23.57-6.95,23.57-17.19,0-10.24-12.35-17.54-23.26-17.54S.76,17.6.76,27.83Z"/>
      <ellipse class="cls-5" cx="5.42" cy="29.82" rx="1.52" ry="1.56"/>
      <ellipse class="cls-5" cx="20.54" cy="29.82" rx="1.52" ry="1.56"/>
      <path class="cls-6" d="M22.08,4.49c-1.28,0-2.31,1.06-2.31,2.37,0,.31.06.61.17.88-1.24.62-3.59,5.14-3.75,7.75-.12,1.97,1.91,1.58,2.04.49.63-3.44,1.55-5.47,3.08-6.89.24.09.5.14.78.14,1.28,0,2.31-1.06,2.31-2.37s-1.03-2.37-2.31-2.37ZM19.98,7.85c.11.25.27.48.45.68-.24-.19-.44-.42-.45-.68Z"/>
      <path class="cls-6" d="M4.72,6.86c0,1.31,1.03,2.37,2.31,2.37.27,0,.53-.05.78-.14,1.53,1.42,2.45,3.46,3.08,6.89.14,1.1,2.16,1.48,2.04-.49-.16-2.62-2.51-7.14-3.75-7.75.11-.27.17-.57.17-.88,0-1.31-1.03-2.37-2.31-2.37s-2.31,1.06-2.31,2.37ZM8.67,8.52c.19-.2.34-.42.45-.68-.02.25-.22.48-.45.68Z"/>
      <path class="cls-6" d="M34.81,14.45c2.94,2.02,4.52,21.38,1.2,26.41,0,0,3.35-1.87,4.77-4.03,1-1.43,1.41-14.12-1.52-19.32l-4.45-3.05Z"/>
      <path class="cls-6" d="M27.77,11.64c3.52,2.45,5.42,25.92,1.44,32.03,0,0,3.89-.19,5.6-2.81,1.2-1.73,1.78-21.31-1.73-27.63l-5.3-1.59Z"/>
      <path class="cls-6" d="M43.76,24.15c1,2.09.62,5.3.21,5.71,0,0,3.96-2.06,4.43-2.36s.69-1.6,0-1.99l-4.64-1.35Z"/>
      <path class="cls-6" d="M11.21,24.9l-3.06-2.06c-.26-.18-.62-.1-.79.17s-.1.63.16.81l2.08,1.4-2.42.79c-.3.1-.47.43-.37.73.09.31.42.48.72.38l3.49-1.13c.07-.02.13-.06.18-.1.07-.04.13-.1.18-.18.17-.27.1-.63-.16-.81Z"/>
      <path class="cls-6" d="M15.19,24.9l3.06-2.06c.26-.18.62-.1.79.17s.1.63-.16.81l-2.08,1.4,2.42.79c.3.1.47.43.37.73-.09.31-.42.48-.72.38l-3.49-1.13c-.07-.02-.13-.06-.18-.1-.07-.04-.13-.1-.18-.18-.17-.27-.1-.63.16-.81Z"/>
      <path class="cls-1" d="M9.57,29.1c-.94,0-1.51,1.26-1.01,2.21.92,1.75,2.53,2.9,4.36,2.9s3.45-1.16,4.36-2.9c.5-.96-.07-2.21-1.01-2.21h-6.71Z"/>
      <path class="cls-7" d="M16.05,32.33s-2.6,2.98-5.66.52c-.35-.54,5.28-1.16,5.66-.52Z"/>
      <path class="cls-4" d="M10.25,29.53h4.68c0,1.78-4.72,2.45-4.68,0Z"/>
    </g>
  </g>
</svg>