<?xml version="1.0" encoding="UTF-8"?>
<svg id="Layer_2" data-name="Layer 2" xmlns="http://www.w3.org/2000/svg" viewBox="0 0 464.26 220.18">
  <defs>
    <style>
      .cls-1 {
        fill: #e1f9ff;
        stroke-width: 4px;
      }

      .cls-1, .cls-2, .cls-3, .cls-4, .cls-5 {
        stroke-miterlimit: 10;
      }

      .cls-1, .cls-3, .cls-4, .cls-5 {
        stroke: #000;
      }

      .cls-2 {
        fill: none;
        stroke: #ffc93d;
        stroke-width: 3.08px;
      }

      .cls-6 {
        fill: #f48978;
      }

      .cls-6, .cls-7, .cls-8, .cls-9 {
        stroke-width: 0px;
      }

      .cls-3 {
        fill: #ffe36c;
        stroke-width: 4.26px;
      }

      .cls-10 {
        font-family: MyriadPro-Regular, 'Myriad Pro';
        font-size: 14.21px;
      }

      .cls-10, .cls-7, .cls-11 {
        fill: #000;
      }

      .cls-8 {
        fill: #ffc93d;
      }

      .cls-11 {
        font-family: Lexend-Bold, Lexend;
        font-size: 43.84px;
        font-variation-settings: 'wght' 700;
        font-weight: 700;
      }

      .cls-12 {
        letter-spacing: -.02em;
      }

      .cls-4 {
        fill: #282828;
        stroke-width: 2.54px;
      }

      .cls-5 {
        fill: #fff;
        stroke-width: 1.85px;
      }

      .cls-9 {
        fill: #f45858;
      }
    </style>
  </defs>
  <g id="Layer_1-2" data-name="Layer 1">
    <g>
      <g>
        <path class="cls-1" d="M56.94,100.14c-17.47-45.34,18.5-68.79,52.99-33.63l-52.99,33.63Z"/>
        <path class="cls-1" d="M79.21,81.16c22.01-48.33,74.68-41.61,76.82,10.64l-76.82-10.64Z"/>
        <path class="cls-3" d="M48.44,123.7c0,28.39,24.9,47.67,55.97,47.67,31.07,0,67.11-19.28,67.11-47.67s-35.15-48.64-66.22-48.64c-31.07,0-56.86,20.25-56.86,48.64Z"/>
        <circle class="cls-6" cx="61.73" cy="129.2" r="4.33"/>
        <circle class="cls-6" cx="104.75" cy="129.2" r="4.33"/>
        <path class="cls-7" d="M109.15,58.94c-3.63,0-6.58,2.95-6.58,6.58,0,.86.17,1.69.47,2.44-3.53,1.72-10.21,14.24-10.68,21.51-.35,5.47,5.42,4.39,5.81,1.35,1.8-9.53,4.41-15.18,8.76-19.11.69.25,1.43.39,2.21.39,3.63,0,6.58-2.95,6.58-6.58s-2.95-6.58-6.58-6.58ZM103.18,68.26c.32.7.76,1.34,1.29,1.88-.68-.53-1.24-1.18-1.29-1.88Z"/>
        <path class="cls-7" d="M59.71,65.52c0,3.63,2.95,6.58,6.58,6.58.78,0,1.52-.14,2.21-.39,4.36,3.94,6.96,9.58,8.76,19.11.39,3.04,6.16,4.12,5.81-1.35-.47-7.27-7.15-19.79-10.68-21.51.3-.76.47-1.58.47-2.44,0-3.63-2.95-6.58-6.58-6.58-3.63,0-6.58,2.95-6.58,6.58ZM70.98,70.14c.53-.54.97-1.18,1.29-1.88-.05.7-.61,1.34-1.29,1.88Z"/>
        <path class="cls-7" d="M145.38,86.59c8.37,5.59,12.87,59.29,3.42,73.25,0,0,9.52-5.2,13.57-11.19,2.85-3.96,4.02-39.15-4.32-53.59l-12.67-8.47Z"/>
        <path class="cls-7" d="M125.35,78.8c10.02,6.78,15.42,71.89,4.09,88.82,0,0,11.08-.52,15.93-7.79,3.41-4.8,5.06-59.11-4.94-76.62l-15.09-4.41Z"/>
        <path class="cls-7" d="M170.86,113.48c2.86,5.79,1.75,14.69.61,15.83,0,0,11.27-5.7,12.61-6.55,1.34-.85,1.96-4.42,0-5.53l-13.22-3.74Z"/>
        <path class="cls-7" d="M78.2,115.58l-8.7-5.72c-.75-.49-1.76-.28-2.25.47s-.28,1.76.47,2.25l5.91,3.88-6.89,2.18c-.85.27-1.33,1.19-1.06,2.04.27.85,1.19,1.33,2.04,1.06l9.93-3.14c.19-.06.36-.16.51-.27.2-.12.38-.28.51-.49.49-.75.28-1.76-.47-2.25Z"/>
        <path class="cls-7" d="M89.53,115.58l8.7-5.72c.75-.49,1.76-.28,2.25.47s.28,1.76-.47,2.25l-5.91,3.88,6.89,2.18c.85.27,1.33,1.19,1.06,2.04-.27.85-1.19,1.33-2.04,1.06l-9.93-3.14c-.19-.06-.36-.16-.51-.27-.2-.12-.38-.28-.51-.49-.49-.75-.28-1.76.47-2.25Z"/>
        <path class="cls-4" d="M73.54,127.2c-2.67,0-4.31,3.48-2.87,6.14,2.61,4.84,7.2,8.06,12.42,8.06s9.81-3.21,12.42-8.06c1.43-2.65-.21-6.14-2.87-6.14h-19.1Z"/>
        <path class="cls-9" d="M91.97,136.18s-7.41,8.26-16.1,1.44c-1.01-1.49,15.03-3.21,16.1-1.44Z"/>
        <path class="cls-5" d="M75.47,128.4h13.33c0,4.93-13.44,6.78-13.33,0Z"/>
      </g>
      <text class="cls-11" transform="translate(226.29 130.61)"><tspan x="0" y="0">Hi</tspan><tspan class="cls-12" x="48.13" y="0">v</tspan><tspan x="74" y="0">eFi</tspan><tspan class="cls-12" x="140.76" y="0">v</tspan><tspan x="166.62" y="0">e</tspan></text>
      <g>
        <rect class="cls-8" x="185.32" y="93.53" width="44.34" height="44.34"/>
        <text class="cls-10" transform="translate(191.38 119.82) scale(1.02 1)"><tspan x="0" y="0">1/8 X</tspan></text>
      </g>
      <g>
        <rect class="cls-8" x="419.92" width="44.34" height="44.34"/>
        <text class="cls-10" transform="translate(425.98 26.3) scale(1.02 1)"><tspan x="0" y="0">1/8 X</tspan></text>
      </g>
      <g>
        <rect class="cls-8" width="44.34" height="44.34"/>
        <text class="cls-10" transform="translate(6.06 26.3) scale(1.02 1)"><tspan x="0" y="0">1/8 X</tspan></text>
      </g>
      <g>
        <rect class="cls-8" y="175.84" width="44.34" height="44.34"/>
        <text class="cls-10" transform="translate(6.06 202.14) scale(1.02 1)"><tspan x="0" y="0">1/8 X</tspan></text>
      </g>
      <g>
        <rect class="cls-8" x="419.92" y="175.84" width="44.34" height="44.34"/>
        <text class="cls-10" transform="translate(425.98 202.14) scale(1.02 1)"><tspan x="0" y="0">1/8 X</tspan></text>
      </g>
      <rect class="cls-2" x="44.34" y="44.31" width="375.57" height="131.57"/>
      <line class="cls-2" x1="186.83" y1="45.67" x2="186.83" y2="177.23"/>
      <line class="cls-2" x1="228.62" y1="44.31" x2="228.62" y2="175.88"/>
    </g>
  </g>
</svg>