<?xml version="1.0" encoding="UTF-8"?>
<svg id="Layer_2" data-name="Layer 2" xmlns="http://www.w3.org/2000/svg" xmlns:xlink="http://www.w3.org/1999/xlink" viewBox="0 0 764.53 795.36">
  <defs>
    <style>
      .cls-1 {
        fill: #82805f;
      }

      .cls-1, .cls-2, .cls-3, .cls-4, .cls-5, .cls-6, .cls-7, .cls-8, .cls-9, .cls-10, .cls-11, .cls-12, .cls-13, .cls-14, .cls-15, .cls-16, .cls-17, .cls-18, .cls-19, .cls-20 {
        stroke-width: 0px;
      }

      .cls-2 {
        fill: #2c2f34;
      }

      .cls-21 {
        stroke: #6b321f;
        stroke-linecap: round;
        stroke-width: 8.4px;
      }

      .cls-21, .cls-22, .cls-23 {
        stroke-miterlimit: 10;
      }

      .cls-21, .cls-6 {
        fill: none;
      }

      .cls-3 {
        fill: #544839;
      }

      .cls-22 {
        fill: url(#New_Pattern);
        stroke-width: 1.18px;
      }

      .cls-22, .cls-23 {
        stroke: #c66300;
      }

      .cls-4 {
        opacity: .44;
      }

      .cls-4, .cls-20 {
        fill: #fef5e6;
      }

      .cls-5 {
        fill: #a3bfa1;
      }

      .cls-7 {
        fill: #843f00;
      }

      .cls-8 {
        fill: #896f4a;
      }

      .cls-9 {
        fill: #bc985e;
      }

      .cls-10 {
        fill: #bcd1d3;
      }

      .cls-23 {
        fill: #fd8;
        stroke-width: 1.28px;
      }

      .cls-11 {
        fill: #383838;
      }

      .cls-12 {
        fill: #99986b;
      }

      .cls-13 {
        fill: #e2d9ca;
      }

      .cls-14 {
        fill: #7c937a;
      }

      .cls-15 {
        fill: #9ca583;
      }

      .cls-16 {
        fill: #998b65;
      }

      .cls-17 {
        fill: #baba85;
      }

      .cls-18 {
        fill: #363231;
      }

      .cls-19 {
        fill: #fffc8f;
      }
    </style>
    <pattern id="New_Pattern" data-name="New Pattern" x="0" y="0" width="14.2" height="12.3" patternTransform="translate(-1482.01 -358.28) scale(.88 .97)" patternUnits="userSpaceOnUse" viewBox="0 0 14.2 12.3">
      <g>
        <rect class="cls-6" x="0" width="14.2" height="12.3"/>
        <polygon class="cls-23" points="16.05 12.16 12.35 12.16 10.5 15.37 12.35 18.58 16.05 18.58 17.9 15.37 16.05 12.16"/>
        <polygon class="cls-23" points="1.85 12.16 -1.85 12.16 -3.7 15.37 -1.85 18.58 1.85 18.58 3.7 15.37 1.85 12.16"/>
        <polygon class="cls-23" points="16.05 6.02 12.35 6.02 10.5 9.22 12.35 12.43 16.05 12.43 17.9 9.22 16.05 6.02"/>
        <polygon class="cls-23" points="8.95 9.09 5.25 9.09 3.4 12.3 5.25 15.5 8.95 15.5 10.8 12.3 8.95 9.09"/>
        <polygon class="cls-23" points="1.85 6.02 -1.85 6.02 -3.7 9.22 -1.85 12.43 1.85 12.43 3.7 9.22 1.85 6.02"/>
        <polygon class="cls-23" points="16.05 -.13 12.35 -.13 10.5 3.07 12.35 6.28 16.05 6.28 17.9 3.07 16.05 -.13"/>
        <polygon class="cls-23" points="8.95 2.94 5.25 2.94 3.4 6.15 5.25 9.36 8.95 9.36 10.8 6.15 8.95 2.94"/>
        <polygon class="cls-23" points="1.85 -.13 -1.85 -.13 -3.7 3.07 -1.85 6.28 1.85 6.28 3.7 3.07 1.85 -.13"/>
        <polygon class="cls-23" points="16.05 -6.28 12.35 -6.28 10.5 -3.07 12.35 .13 16.05 .13 17.9 -3.07 16.05 -6.28"/>
        <polygon class="cls-23" points="8.95 -3.21 5.25 -3.21 3.4 0 5.25 3.21 8.95 3.21 10.8 0 8.95 -3.21"/>
        <polygon class="cls-23" points="1.85 -6.28 -1.85 -6.28 -3.7 -3.07 -1.85 .13 1.85 .13 3.7 -3.07 1.85 -6.28"/>
      </g>
    </pattern>
  </defs>
  <g id="Layer_1-2" data-name="Layer 1">
    <g>
      <path class="cls-10" d="M743.78,205.63h-254.66s3.83-22.31,52.09-23.45c0,0-5.36-30.03,65.11-30.32,0,0,8.04-25.13,47.11-25.13,22.28,0,39.88,3.83,53.8,9.8C649.56,54,553.86,0,445.54,0c-92.26,0-175.35,39.18-233.59,101.79,9.83,9.63,8.95,29.29,8.95,29.29,70.47.77,65.11,81.19,65.11,81.19,48.26,3.06,52.09,62.81,52.09,62.81h-208.51c-1.98,14.36-3.02,29.01-3.02,43.91,0,176.17,142.82,318.99,318.99,318.99s318.99-142.82,318.99-318.99c0-39.93-7.36-78.13-20.75-113.35Z"/>
      <polyline class="cls-15" points="697.25 698.95 697.28 708.85 483.58 708.85"/>
      <ellipse class="cls-1" cx="446.4" cy="776.05" rx="209.01" ry="19.32"/>
      <g>
        <rect class="cls-16" x="687.46" y="648.43" width="9.77" height="60.3" transform="translate(1384.7 1357.15) rotate(-180)"/>
        <path class="cls-5" d="M652.79,628.82v-47.89c0-37.2,11-73.56,31.61-104.53h0c4.38-6.58,14.07-6.49,18.33.16l.51.79c19.48,30.38,29.83,65.71,29.83,101.8v49.66c.08,1.02.12,2.04.12,3.08,0,22.23-18.02,40.26-40.26,40.26-22.23,0-40.26-18.02-40.26-40.26,0-1.04.04-2.06.12-3.08Z"/>
        <path class="cls-14" d="M652.96,628.72v-47.89c0-37.2,11-73.56,31.61-104.53h0c1.9-2.86,4.81-4.46,7.83-4.81v200.56c-21.91-.37-39.56-18.25-39.56-40.25,0-1.04.04-2.06.12-3.08Z"/>
      </g>
      <polygon class="cls-12" points="452.41 747.86 475.41 747.86 463.2 768.41 452.51 768.41 452.41 747.86"/>
      <g>
        <polygon class="cls-15" points="213.7 706.04 0 706.04 213.68 686.91 213.7 706.04"/>
        <g>
          <rect class="cls-16" x="199.11" y="616.52" width="14.58" height="89.06" transform="translate(412.81 1322.09) rotate(-180)"/>
          <path class="cls-5" d="M147.37,587.27v-71.46c0-55.5,16.41-109.77,47.17-155.97h0c6.53-9.81,20.99-9.69,27.36.24l.76,1.19c29.06,45.33,44.51,98.05,44.51,151.91v74.1c.11,1.52.17,3.05.17,4.6,0,33.18-26.9,60.07-60.07,60.07s-60.07-26.9-60.07-60.07c0-1.55.06-3.08.17-4.6Z"/>
          <path class="cls-14" d="M147.63,587.12v-71.46c0-55.5,16.41-109.77,47.17-155.97h0c2.84-4.26,7.17-6.65,11.69-7.17v299.26c-32.7-.56-59.03-27.23-59.03-60.06,0-1.55.06-3.08.17-4.6Z"/>
        </g>
        <polyline class="cls-15" points="142.41 714.94 142.43 724.84 5.09 724.84"/>
        <g>
          <rect class="cls-16" x="132.61" y="664.41" width="9.77" height="60.31" transform="translate(275 1389.14) rotate(-180)"/>
          <path class="cls-5" d="M97.94,644.81v-47.89c0-37.2,11-73.56,31.61-104.53h0c4.38-6.58,14.07-6.49,18.33.16l.51.79c19.48,30.38,29.83,65.71,29.83,101.8v49.66c.08,1.02.12,2.04.12,3.08,0,22.23-18.02,40.26-40.26,40.26-22.23,0-40.26-18.02-40.26-40.26,0-1.04.04-2.06.12-3.08Z"/>
          <path class="cls-14" d="M98.11,644.71v-47.89c0-37.2,11-73.56,31.61-104.53h0c1.9-2.86,4.81-4.46,7.83-4.81v200.56c-21.91-.37-39.56-18.25-39.56-40.25,0-1.04.04-2.06.12-3.08Z"/>
        </g>
      </g>
      <polygon class="cls-9" points="320.68 386.12 323.24 375.2 344.15 383.28 342.48 398.53 319.91 389.26 320.68 386.12"/>
      <path class="cls-8" d="M323.35,375.65s2.59,13.85,20.47,10.55c4.56-1.97-10.55-14.3-20.47-10.55Z"/>
      <path class="cls-8" d="M329.58,360.27c0,6.11-3.46,12.86-8.13,16.12-1.77,1.24-5.16-1.7-7.19-.98-2.48.88-3.55,3.49-6.03,3.49-2.2,0-7.15-1.29-8.79-3.49-1.36-1.83.56-4.5-.8-5.66-4.33-3.72-5.01-3.36-5.01-10.02,0-2.53,3.09-3.28,4.61-5.01,1.8-2.05-.06-4.98,1.63-6.97,3.25-3.81,3.11-7.84,8.13-7.84,9.87,0,21.57,9.12,21.57,20.37Z"/>
      <path class="cls-3" d="M360.32,314.55s21.99-3.04,21.45,16.98c-.54,20.02-1.25,30.74-17.87,27.88s-3.57-44.86-3.57-44.86Z"/>
      <path class="cls-3" d="M315.64,351.53s-1.56,5.78-3.31,6.55-4.16,1.64-3.04,3.5,1.83,6.13,1.47,6.96,3.4,5.23,4.6,5.74,9.88,1.35,9.88,1.35l-9.61-24.1Z"/>
      <path class="cls-18" d="M296.86,745.44s-.54,10.19-1.07,19.84-.36,16.09-.36,16.09h38.25s1.25-10.01-.89-13.23-10.37-11.44-10.72-21.81c-.18-2.5-25.2-.89-25.2-.89Z"/>
      <path class="cls-18" d="M365.31,746.33s.71,10.37-.18,12.69-2.32,2.68-2.32,22.52h61.49s1.43-12.33-1.43-13.94-26.81-10.19-29.49-13.05-1.25-13.76-1.25-13.76l-26.81,5.54Z"/>
      <path class="cls-9" d="M320.01,333.13s-11.94,37.58,10.02,47.68c21.97,10.1,32.63,10.91,37.54-.2,4.91-11.11,13.39-49.71-2.35-58.59-17.92-10.1-41.8.81-45.21,11.11Z"/>
      <path class="cls-20" d="M288.1,499.31s-7.51,14.66-6.79,49.33c.71,34.68,3.93,69.35,2.86,80.08s-1.79,56.84,1.43,69.35c-.36,13.94-1.79,41.83,10.72,48.26,12.51,6.43,26.81,3.22,31.1-3.93,4.29-7.15,8.94-55.05,4.29-78.65-4.65-23.59,5.36-37.54,3.93-70.07,8.58,36.82,6.43,40.75,6.79,48.26s5,22.16,5.72,31.1c.71,8.94-2.86,70.78,15.01,74.36s34.68,1.79,35.03-13.94c.36-15.73,5-64.35-.71-77.22-3.57-8.58-1.07-6.43-2.14-16.8-1.07-10.37-4.65-11.08-5-18.95-.36-7.86.36-42.9-2.5-53.98-2.86-11.08-25.27-62.42-25.62-74.93-.36-12.51,7.69-30.21,7.69-43.79,18.35,14.42,89.44,39,99.8,36.14,10.37-2.86,33.6-2.14,35.39-12.87,1.79-10.72,2.5-28.96-15.01-30.39-17.52-1.43-54.7.36-54.7.36,0,0-36.82-35.03-70.07-39.32-17.16-1.07-18.68-2.21-18.68-2.21v-5.36l-29.85-7.17-3.22,7.51s-28.69-6.7-36.2.45c-7.51,7.15,16.8,87.58,10.72,104.39Z"/>
      <path class="cls-13" d="M307.29,427.79s-7.51,37.18-5.36,43.61,10.72,33.72,9.65,49.45-12.15,53.98-10.37,69.35,3.22,46.47,2.86,53.98-9.65,37.18-5.72,49.69c3.93,12.51-6.08,52.19,8.04,56.3-16.27-1.61-20.91-15.55-20.56-35.21-.18-11.62.12-16.44.12-16.44,0,0-2.8-4.47-2.26-44.86.54-40.4-.54-75.25-1.79-95.09-1.25-19.84.71-34.5.71-34.5,0,0,7.51-30.39,5.36-44.33s-3.93-39.68-3.93-39.68l23.24-12.27Z"/>
      <path class="cls-20" d="M277.73,395.5s-20.97,14.21-28.84,49.17-20.14,49.81-1.19,65.56c18.95,15.75,51.95,35.47,56.6,28.17,4.65-7.3,13.94-21.51,7.86-32.27s-17.16-14.98-21.09-14.98-11.08-8.45-11.08-8.45c0,0,30.03-41.49,27.53-61.47-2.5-19.98-11.68-32.27-29.79-25.74Z"/>
      <path class="cls-13" d="M341.61,393.17s-10.01,50.05-7.33,67.21c2.68,17.16,12.87,52.91,13.76,69.17-.89-34.14-12.33-51.3-12.15-79.36.18-28.06,5.72-57.02,5.72-57.02Z"/>
      <path class="cls-13" d="M336.01,594.14s12.33,19.3,15.19,40.4c2.86,21.09,5,30.92,6.61,37.18,1.61,6.26-4.47,51.66,5.72,76.14-5.9-26.99-4.47-52.73-3.93-73.64,0-5.18-.89-4.29-3.04-17.34-2.14-13.05-4.47-27.17-6.43-34.5s-6.97-20.38-14.12-28.24Z"/>
      <path class="cls-8" d="M364.78,337.65c-5.48,7.63-12.68,12.65-30.91,17.29-18.23,4.65-20.38-3.75-20.38-3.75,0,0-11.16-52.86,51.52-37.37,11.44,2.5-.24,23.83-.24,23.83Z"/>
      <ellipse class="cls-9" cx="318.54" cy="356.42" rx="6.91" ry="9.95"/>
      <ellipse class="cls-3" cx="355.45" cy="355.05" rx="4.65" ry="1.7" transform="translate(-28.08 679.56) rotate(-85.2)"/>
      <ellipse class="cls-3" cx="369.16" cy="355.05" rx="4.65" ry="1.7" transform="translate(-15.52 693.21) rotate(-85.2)"/>
      <polygon class="cls-18" points="322.36 519.68 320.93 566.4 281.84 565.68 282.2 563.36 319.38 564.43 321.05 519.74 322.36 519.68"/>
      <path class="cls-4" d="M281.78,328.78s-13.26,25.07-8.61,37.59-3.93,13.23-.36,26.45c3.57,13.23,104.03,25.74,127.62,17.87,7.51-2.5-2.92-23.18-1.49-29.25s16.15-27.07,13.64-38.59l-130.81-14.07Z"/>
      <path class="cls-20" d="M281.78,328.78s55.62,36.1,130.81,14.07l-28.35-17.85s-7.63-28.35-32.65-29.82c-25.03-1.47-34.22,20.58-34.22,20.58l-35.59,13.02Z"/>
      <path class="cls-13" d="M317.37,316.07s24.57,15.32,66.87,9.24c-.77-2.94-1.15-3.25-1.15-3.25,0,0-32.85,4.15-64.74-8.41l-.98,2.42Z"/>
      <path class="cls-18" d="M486.89,467.54s5.66,8.04,11.74,10.9c6.08,2.86,7.51,1.91,7.81.66s-6.02-4.41-5.84-5.72-.54-6.49-2.98-6.97-10.72,1.13-10.72,1.13Z"/>
      <polygon class="cls-18" points="362.23 518.39 368.36 564.72 385.96 559.83 385.37 557.56 369.7 562.6 363.54 518.31 362.23 518.39"/>
      <polygon class="cls-18" points="344.16 445.45 364.06 447.83 364.06 449.38 344.28 446.76 344.16 445.45"/>
      <polygon class="cls-18" points="307.34 440.08 327.24 442.47 327.24 444.02 307.46 441.4 307.34 440.08"/>
      <path class="cls-21" d="M294.92,549.86s.48-17.87,17.87-17.87,18.11,18.11,18.11,18.11v229.27"/>
      <polygon class="cls-18" points="326.77 772.99 322.48 780.5 322.48 785.24 339.58 785.24 339.58 781.13 335.09 772.81 326.77 772.99"/>
      <path class="cls-13" d="M369.9,447.8s-.03-5.9-.74-8.22c4.2,6.43,69.03,38.13,89.84,43.47,0,0-55.07-11.14-89.09-35.25Z"/>
      <path class="cls-2" d="M295.55,537.57c-1.9-7.84,1.82-15.13,15.05-14.64,13.23.49,13.88,9.86,13.7,11.95s-3.02,6.23-5.85,6.55-3.84-2.32-4.83-1.69-.18,3.28-2.54,4.18c-2.36.91-3.76-.83-4.73-.46s.05,2.38-1.81,2.97-6.38,1.86-8.99-8.87Z"/>
      <rect class="cls-22" x="463.8" y="476.47" width="117.19" height="53.87"/>
      <polygon class="cls-7" points="580.99 516.56 579.12 516.56 577.08 513.49 573.33 513.41 571.21 510.26 566.87 510 565.16 507.36 560.48 507.45 558.95 510.26 553.93 510.34 552.14 513.49 548.06 513.58 546.53 516.39 544.48 516.39 544.23 519.36 580.99 519.33 580.99 516.56"/>
      <polygon class="cls-7" points="463.72 513.41 465.76 513.41 467.29 510.6 471.38 510.51 473.16 507.36 478.19 507.28 479.72 504.47 484.4 504.39 486.1 507.02 490.44 507.28 492.57 510.43 496.31 510.51 498.36 513.58 502.7 513.58 504.48 510.43 509.16 510.43 510.78 507.36 515.97 507.36 517.5 504.64 521.76 504.64 523.38 501.41 521.76 498.51 523.21 495.45 528.23 495.45 529.76 498.26 534.36 498.26 535.89 501.24 540.31 501.24 542.44 504.64 540.48 507.71 542.02 510.6 540.48 513.58 542.61 516.3 463.46 516.39 463.72 513.41"/>
      <path class="cls-18" d="M486.11,458.48c3.81-5.72,25.02-5.91,37.18,5.53,1.63,1.53,10.68,13.23,7.64,15.33-1.58,1.09-2.82-.49-2.82-.49,0,0,1.03,3.21-1.74,2.55-2.41-.58-12.38-9.56-12.38-9.56,0,0,8.49,6.84,8.76,8.67.2,1.34-1.56,2.26-2.64,1.43s-10.89-7.83-12.44-8.67-30.86-.84-21.57-14.78Z"/>
      <rect class="cls-12" x="452.46" y="515.48" width="144" height="231.32"/>
      <rect class="cls-17" x="451.07" y="625.33" width="147.06" height="99.06"/>
      <rect class="cls-17" x="451.07" y="520.13" width="147.06" height="99.06"/>
      <rect class="cls-12" x="504.72" y="569.41" width="39.42" height="7.4" rx="3.7" ry="3.7"/>
      <rect class="cls-12" x="504.72" y="673.58" width="39.42" height="7.4" rx="3.7" ry="3.7"/>
      <polygon class="cls-12" points="596.37 747.86 571.92 747.86 584.9 768.41 596.26 768.41 596.37 747.86"/>
      <polygon class="cls-1" points="452.58 736.73 452.58 750.18 595.69 750.18 595.69 737.13 452.58 736.73"/>
      <rect class="cls-6" x="456.37" y="474.51" width="133.96" height="63.83"/>
      <g>
        <path class="cls-13" d="M552.94,342.87s2.07-2.64,1.98-5.51c-.2-6.55-9.63-8.71-14.45-2-4.06,5.64,8.42,7.3,12.47,7.52Z"/>
        <ellipse class="cls-19" cx="554.11" cy="345.72" rx="11.36" ry="8.43"/>
        <path class="cls-11" d="M548.22,338.56s6.03-.45,3.38,15.48c2.17.41,5.87-.16,6.32-.35s1.47-7.6.73-10.37-2.2-5.46-4.76-6.06c-1.15-.06-4.47.51-5.68,1.31Z"/>
        <path class="cls-20" d="M559.9,343.63s2.07-2.64,1.98-5.51c-.2-6.55-9.63-8.71-14.45-2-4.06,5.64,8.42,7.3,12.47,7.52Z"/>
        <path class="cls-11" d="M544.57,344.92l-8.11,2.68,8.49,1.21s1.6-2.04-.38-3.89Z"/>
      </g>
    </g>
  </g>
</svg>