<?xml version="1.0" encoding="UTF-8"?>
<svg id="Layer_2" data-name="Layer 2" xmlns="http://www.w3.org/2000/svg" viewBox="0 0 106.01 97.79">
  <defs>
    <style>
      .cls-1 {
        fill: #000;
        stroke-width: 0px;
      }
    </style>
  </defs>
  <g id="Layer_1-2" data-name="Layer 1">
    <path class="cls-1" d="M68.07,23.7c1.15-3.12-.97-6.15-3.79-9.17l3.43-3.57c.47.14.96.22,1.47.22,2.82,0,5.11-2.29,5.11-5.11s-2.29-5.11-5.11-5.11-5.11,2.29-5.11,5.11c0,.47.07.93.19,1.37-1.37,1.35-2.75,2.7-4.12,4.04-2.2-.47-4.93-.86-8.08-.91-2.93-.04-5.49.23-7.6.59-1.4-1.3-2.8-2.6-4.2-3.9l-.39.3c.4-.73.62-1.56.62-2.45,0-2.82-2.29-5.11-5.11-5.11s-5.11,2.29-5.11,5.11,2.29,5.11,5.11,5.11c.6,0,1.17-.11,1.7-.3l3.97,3.97c-.44.27-3.53,2.24-3.99,6-.26,2.18.48,3.88.86,4.61C2.75,5.97-10.93,38.9,9.65,48.78c-6.14,16.46,5.52,23.3,19.89,18.66,1.12,9.53,4.81,18.26,19.37,23.56l3.93,6.8,4.19-7.59c9.86-3.25,16.29-10.99,19.63-22.77,13.24,6.67,25.39-2.2,19.11-18.66,23.76-15.71,2.74-41.52-27.69-25.08Z"/>
  </g>
</svg>