<?xml version="1.0" encoding="UTF-8"?>
<svg id="Layer_2" data-name="Layer 2" xmlns="http://www.w3.org/2000/svg" viewBox="0 0 727.66 885.25">
  <defs>
    <style>
      .cls-1 {
        fill: #fd9;
      }

      .cls-1, .cls-2, .cls-3, .cls-4, .cls-5, .cls-6, .cls-7, .cls-8 {
        stroke-width: 0px;
      }

      .cls-2 {
        fill: #72341c;
      }

      .cls-3 {
        fill: #fff3dc;
      }

      .cls-4 {
        fill: #c18500;
      }

      .cls-5 {
        fill: #ffc93d;
      }

      .cls-6 {
        fill: #964a28;
      }

      .cls-7 {
        fill: #f94654;
      }

      .cls-8 {
        fill: #fcf9ca;
      }
    </style>
  </defs>
  <g id="Layer_1-2" data-name="Layer 1">
    <g>
      <circle class="cls-8" cx="363.83" cy="363.83" r="363.83"/>
      <rect class="cls-5" x="230.52" y="147.21" width="259.09" height="51.32" rx="25.66" ry="25.66"/>
      <path class="cls-4" d="M472.28,186.14h-207.77c-14.17,0-25.66-11.49-25.66-25.66h0c0-2.61.39-5.13,1.12-7.5-5.76,4.71-9.45,11.86-9.45,19.89h0c0,14.17,11.49,25.66,25.66,25.66h207.77c11.56,0,21.33-7.65,24.54-18.16-4.42,3.61-10.06,5.77-16.21,5.77Z"/>
      <rect class="cls-1" x="416.31" y="160.06" width="56.43" height="8.68" rx="4.34" ry="4.34"/>
      <rect class="cls-1" x="223.29" y="199.29" width="275.74" height="356.17" rx="30.64" ry="30.64"/>
      <path class="cls-5" d="M468.91,199.3c2.27,4.27,3.56,9.13,3.56,14.28v294.89c0,16.85-13.79,30.64-30.64,30.64h-214.47c-.17,0-.35-.01-.52-.01,5.16,9.7,15.37,16.35,27.07,16.35h214.47c16.85,0,30.64-13.79,30.64-30.64V229.93c0-16.68-13.5-30.34-30.12-30.62Z"/>
      <path class="cls-3" d="M272.34,216.21c0-3.42-2.76-6.2-6.19-6.2h-8.82c-12.19.06-18.16,6.47-18.55,18.55v168.26c0,5.88,4.76,10.64,10.64,10.64h0c5.88,0,10.64-4.76,10.64-10.64v-161.96c.38-4.52,2.97-6.55,6.98-6.98h0c2.92,0,5.28-2.36,5.29-5.28l.02-6.4Z"/>
      <g>
        <path class="cls-6" d="M444.59,804.79s-17.54-84.09-29.04-94.97c-11.49-10.89-22.99-42.35-22.99-53.84s7.86-62.91,9.68-78.64c1.81-15.73,1.07-71.06,2.83-78.73,4.34-18.89,9.79-19.92,15.81-16.86,15.06,7.66,10.39,74.41,17.65,82.28s32.06,9.07,39.32-7.26,26.62-50.81,16.33-114.33c-3.94-26.45,8.69-38.36,17.08-43.05.63-.35,3.17,1.62,3.41,1.09,6.57-14.15,18.83,15.95,21.25,36.52s9.71,117.94,7.55,148.14c-1.72,24.15-45.06,82.94-41.43,103.51,3.63,20.57,46.58,94.97,46.58,94.97l-104.05,21.17Z"/>
        <path class="cls-5" d="M436.96,805.9l115.53-27.22c2.8-.66,5.71.61,7.12,3.13l52.7,93.8c2.42,4.31-.69,9.63-5.64,9.63h-161c-3.3,0-6.07-2.49-6.43-5.77l-7.23-66.59c-.35-3.24,1.77-6.24,4.95-6.99Z"/>
        <path class="cls-2" d="M514.15,400.76s10.93,72.48,10.93,98.42-4.6,94.12-4.6,94.12c0,0,9.96-79.11,10.21-88.02.23-7.94-8.03-78.96-9.82-94.24-.31-2.66-1.17-5.25-2.64-7.49-1.13-1.72-2.58-3.18-4.09-2.8Z"/>
        <path class="cls-2" d="M419.08,493.47c0,8.46.27,16.15-3.36,16.15-1.61,0-8.43.26-9.57-1.98-1.43-2.81-.21-9.46-.21-14.17,0-8.46,2.94-15.32,6.57-15.32s6.57,6.86,6.57,15.32Z"/>
        <path class="cls-2" d="M505.46,410.17c0,6.44-.25,12.29,3.09,12.29,1.48,0,7.75.2,8.8-1.51,1.32-2.14.2-7.2.2-10.78,0-6.44-2.71-11.66-6.05-11.66s-6.05,5.22-6.05,11.66Z"/>
        <path class="cls-2" d="M519.17,408.16c1.21,6.32,2.12,12.11,4.78,11.6,1.18-.23,6.22-.99,6.73-2.83.65-2.3-1.2-7.1-1.88-10.62-1.21-6.32-4.36-11.03-7.02-10.52s-3.84,6.05-2.62,12.37Z"/>
      </g>
      <g>
        <path class="cls-6" d="M274.12,804.79s17.54-84.09,29.04-94.97c11.49-10.89,22.99-42.35,22.99-53.84,0-11.49-7.86-62.91-9.68-78.64-1.81-15.73-1.07-71.06-2.83-78.73-4.34-18.89-9.79-19.92-15.81-16.86-15.06,7.66-10.39,74.41-17.65,82.28s-32.06,9.07-39.32-7.26-26.62-50.81-16.33-114.33c3.94-26.45-8.69-38.36-17.08-43.05-.63-.35-3.17,1.62-3.41,1.09-6.57-14.15-18.83,15.95-21.25,36.52-2.42,20.57-9.71,117.94-7.55,148.14,1.72,24.15,45.06,82.94,41.43,103.51-3.63,20.57-46.58,94.97-46.58,94.97l104.05,21.17Z"/>
        <path class="cls-5" d="M281.95,806.31l-118.75-27.97c-1.93-.45-3.93.42-4.9,2.15l-55.13,98.14c-1.66,2.96.48,6.62,3.88,6.62h166.26c2.27,0,4.18-1.71,4.42-3.97l7.61-70.16c.24-2.23-1.22-4.29-3.4-4.81Z"/>
        <path class="cls-2" d="M204.56,400.76s-10.93,72.48-10.93,98.42c0,25.95,4.6,94.12,4.6,94.12,0,0-9.96-79.11-10.21-88.02-.23-7.94,8.03-78.96,9.82-94.24.31-2.66,1.17-5.25,2.64-7.49,1.13-1.72,2.58-3.18,4.09-2.8Z"/>
        <path class="cls-2" d="M299.63,493.47c0,8.46-.27,16.15,3.36,16.15,1.61,0,8.43.26,9.57-1.98,1.43-2.81.21-9.46.21-14.17,0-8.46-2.94-15.32-6.57-15.32s-6.57,6.86-6.57,15.32Z"/>
        <path class="cls-2" d="M213.25,410.17c0,6.44.25,12.29-3.09,12.29-1.48,0-7.75.2-8.8-1.51-1.32-2.14-.2-7.2-.2-10.78,0-6.44,2.71-11.66,6.05-11.66s6.05,5.22,6.05,11.66Z"/>
        <path class="cls-2" d="M199.54,408.16c-1.21,6.32-2.12,12.11-4.78,11.6-1.18-.23-6.22-.99-6.73-2.83-.65-2.3,1.2-7.1,1.88-10.62,1.21-6.32,4.36-11.03,7.02-10.52s3.84,6.05,2.62,12.37Z"/>
      </g>
      <path class="cls-7" d="M366.36,421.11s-44.85-36.82-49.83-60.35c-4.98-23.53,4.98-32.67,17.44-33.78s30.73,22.7,30.73,22.7c0,0,10.46-21.66,19.66-24.64,15.31-4.95,40.01,7.68,23.81,40.14-17.82,35.71-41.81,55.92-41.81,55.92Z"/>
      <rect class="cls-3" x="238.89" y="417.57" width="21.19" height="41.36" rx="10.6" ry="10.6"/>
    </g>
  </g>
</svg>