<?xml version="1.0" encoding="UTF-8"?>
<svg id="Layer_2" data-name="Layer 2" xmlns="http://www.w3.org/2000/svg" viewBox="0 0 422.37 174.35">
  <defs>
    <style>
      .cls-1 {
        fill: none;
        stroke: #000;
        stroke-dasharray: 0 12;
        stroke-miterlimit: 10;
        stroke-width: 3px;
      }
    </style>
  </defs>
  <g id="Layer_1-2" data-name="Layer 1">
    <path class="cls-1" d="M1.8,174.26C-.8,132.22,13.71,89.37,41.31,57.56,68.91,25.74,109.28,5.32,151.26,1.96c11.74-.94,23.7-.59,35.04,2.59,12.74,3.57,24.25,10.55,34.98,18.28,23.94,17.21,46.05,40.67,50.2,69.86,4.15,29.19-17.37,62.81-46.84,61.92-3.09-.09-6.4-.66-8.58-2.85-1.67-1.68-2.41-4.05-2.99-6.35-7.79-31.09,5.52-65.4,29.77-86.36,24.25-20.96,57.86-29.3,89.78-26.45,31.93,2.85,62.26,16.09,88.91,33.89"/>
  </g>
</svg>