<?xml version="1.0" encoding="UTF-8"?>
<svg id="Layer_2" data-name="Layer 2" xmlns="http://www.w3.org/2000/svg" viewBox="0 0 333.26 221.48">
  <defs>
    <style>
      .cls-1 {
        fill: none;
        stroke: #000;
        stroke-dasharray: 0 12;
        stroke-miterlimit: 10;
        stroke-width: 3px;
      }
    </style>
  </defs>
  <g id="Layer_1-2" data-name="Layer 1">
    <path class="cls-1" d="M1.45,221.12c10.02-39.55,26.08-78.27,52.44-109.41,26.36-31.14,63.91-54.12,104.59-57.17,12.12-.91,24.47-.05,36.07,3.56,13.54,4.21,26.55,12.96,31.72,26.16,5.03,12.83,1.68,27.88-6.1,39.25-8.54,12.47-22.97,21.43-38.08,20.96s-29.89-11.81-32.01-26.77c-.79-5.59.1-11.31,1.62-16.75,3.99-14.31,12.18-27.05,20.49-39.37,7.54-11.18,15.37-22.32,25.32-31.42,17.29-15.81,40.24-24.56,63.49-27.49,24.13-3.04,49-.07,71.74,8.57"/>
  </g>
</svg>