<?xml version="1.0" encoding="UTF-8"?>
<svg id="Layer_2" data-name="Layer 2" xmlns="http://www.w3.org/2000/svg" viewBox="0 0 26.44 23.96">
  <defs>
    <style>
      .cls-1 {
        font-family: Lexend-Regular, Lexend;
        font-size: 1.66px;
        font-variation-settings: 'wght' 400;
      }

      .cls-1, .cls-2 {
        fill: #000;
      }

      .cls-3 {
        fill: #e1f9ff;
        stroke-width: .48px;
      }

      .cls-3, .cls-4, .cls-5, .cls-6, .cls-7 {
        stroke-miterlimit: 10;
      }

      .cls-3, .cls-4, .cls-5, .cls-7 {
        stroke: #000;
      }

      .cls-8 {
        fill: #f48978;
      }

      .cls-8, .cls-2, .cls-9, .cls-10 {
        stroke-width: 0px;
      }

      .cls-4 {
        fill: #fff;
        stroke-width: .22px;
      }

      .cls-5 {
        fill: #282828;
        stroke-width: .3px;
      }

      .cls-9 {
        fill: #ffc93d;
      }

      .cls-6 {
        fill: none;
        stroke: #ffc93d;
        stroke-width: .44px;
      }

      .cls-11 {
        letter-spacing: -.06em;
      }

      .cls-7 {
        fill: #ffe36c;
        stroke-width: .51px;
      }

      .cls-10 {
        fill: #f45858;
      }
    </style>
  </defs>
  <g id="Layer_1-2" data-name="Layer 1">
    <g>
      <g>
        <path class="cls-3" d="M6.78,10.8c-2.07-5.38,2.2-8.17,6.29-3.99l-6.29,3.99Z"/>
        <path class="cls-3" d="M9.42,8.55c2.61-5.74,8.87-4.94,9.12,1.26l-9.12-1.26Z"/>
        <path class="cls-7" d="M5.77,13.6c0,3.37,2.96,5.66,6.65,5.66,3.69,0,7.97-2.29,7.97-5.66s-4.17-5.78-7.86-5.78c-3.69,0-6.75,2.41-6.75,5.78Z"/>
        <circle class="cls-8" cx="7.35" cy="14.25" r=".51"/>
        <circle class="cls-8" cx="12.46" cy="14.25" r=".51"/>
        <path class="cls-2" d="M12.98,5.91c-.43,0-.78.35-.78.78,0,.1.02.2.06.29-.42.2-1.21,1.69-1.27,2.55-.04.65.64.52.69.16.21-1.13.52-1.8,1.04-2.27.08.03.17.05.26.05.43,0,.78-.35.78-.78s-.35-.78-.78-.78ZM12.27,7.02c.04.08.09.16.15.22-.08-.06-.15-.14-.15-.22Z"/>
        <path class="cls-2" d="M7.11,6.69c0,.43.35.78.78.78.09,0,.18-.02.26-.05.52.47.83,1.14,1.04,2.27.05.36.73.49.69-.16-.06-.86-.85-2.35-1.27-2.55.04-.09.06-.19.06-.29,0-.43-.35-.78-.78-.78s-.78.35-.78.78ZM8.45,7.24c.06-.06.12-.14.15-.22,0,.08-.07.16-.15.22Z"/>
        <path class="cls-2" d="M17.28,9.19c.99.66,1.53,7.04.41,8.7,0,0,1.13-.62,1.61-1.33.34-.47.48-4.65-.51-6.36l-1.5-1.01Z"/>
        <path class="cls-2" d="M14.9,8.27c1.19.81,1.83,8.54.49,10.55,0,0,1.32-.06,1.89-.92.41-.57.6-7.02-.59-9.1l-1.79-.52Z"/>
        <path class="cls-2" d="M20.31,12.39c.34.69.21,1.74.07,1.88,0,0,1.34-.68,1.5-.78s.23-.53,0-.66l-1.57-.44Z"/>
        <path class="cls-2" d="M9.3,12.64l-1.03-.68c-.09-.06-.21-.03-.27.06s-.03.21.06.27l.7.46-.82.26c-.1.03-.16.14-.13.24.03.1.14.16.24.13l1.18-.37s.04-.02.06-.03c.02-.01.04-.03.06-.06.06-.09.03-.21-.06-.27Z"/>
        <path class="cls-2" d="M10.65,12.64l1.03-.68c.09-.06.21-.03.27.06s.03.21-.06.27l-.7.46.82.26c.1.03.16.14.13.24-.03.1-.14.16-.24.13l-1.18-.37s-.04-.02-.06-.03c-.02-.01-.04-.03-.06-.06-.06-.09-.03-.21.06-.27Z"/>
        <path class="cls-5" d="M8.75,14.02c-.32,0-.51.41-.34.73.31.58.85.96,1.48.96s1.16-.38,1.48-.96c.17-.32-.02-.73-.34-.73h-2.27Z"/>
        <path class="cls-10" d="M10.94,15.08s-.88.98-1.91.17c-.12-.18,1.79-.38,1.91-.17Z"/>
        <path class="cls-4" d="M8.98,14.16h1.58c0,.59-1.6.81-1.58,0Z"/>
      </g>
      <rect class="cls-9" width="4" height="4"/>
      <rect class="cls-9" x="22.44" y=".11" width="4" height="4"/>
      <rect class="cls-9" x="22.44" y="19.96" width="4" height="4"/>
      <rect class="cls-9" y="19.96" width="4" height="4"/>
      <rect class="cls-6" x="4" y="4.11" width="18.44" height="15.75"/>
      <text class="cls-1" transform="translate(12.46 2.35) scale(1.14 1)"><tspan x="0" y="0">X</tspan></text>
      <text class="cls-1" transform="translate(.19 2.57) scale(.94 1)"><tspan x="0" y="0">1</tspan><tspan class="cls-11" x=".83" y="0">/</tspan><tspan x="1.66" y="0">4X</tspan></text>
      <text class="cls-1" transform="translate(22.71 2.57) scale(.94 1)"><tspan x="0" y="0">1</tspan><tspan class="cls-11" x=".83" y="0">/</tspan><tspan x="1.66" y="0">4X</tspan></text>
      <text class="cls-1" transform="translate(22.57 22.66) scale(.94 1)"><tspan x="0" y="0">1</tspan><tspan class="cls-11" x=".83" y="0">/</tspan><tspan x="1.66" y="0">4X</tspan></text>
      <text class="cls-1" transform="translate(.15 22.66) scale(.94 1)"><tspan x="0" y="0">1</tspan><tspan class="cls-11" x=".83" y="0">/</tspan><tspan x="1.66" y="0">4X</tspan></text>
    </g>
  </g>
</svg>