<?xml version="1.0" encoding="UTF-8"?>
<svg id="Layer_2" data-name="Layer 2" xmlns="http://www.w3.org/2000/svg" viewBox="0 0 475.84 294.35">
  <defs>
    <style>
      .cls-1 {
        letter-spacing: -.02em;
      }

      .cls-2 {
        fill: #ffc93d;
        stroke-width: 0px;
      }

      .cls-3 {
        letter-spacing: 0em;
      }

      .cls-4 {
        letter-spacing: -.01em;
      }

      .cls-5 {
        letter-spacing: 0em;
      }

      .cls-6 {
        letter-spacing: 0em;
      }

      .cls-7 {
        fill: #000;
        font-family: Lexend-Regular, Lexend;
        font-size: 50px;
        font-variation-settings: 'wght' 400;
      }
    </style>
  </defs>
  <g id="Layer_1-2" data-name="Layer 1">
    <g>
      <path class="cls-2" d="M120.22,1.58c1.48-1.28,3.45-1.82,5.37-1.49l64,11.22c3.53.62,5.9,3.99,5.28,7.52-.62,3.54-3.99,5.9-7.52,5.28l-43.15-7.56c25.75,20.99,44.73,44.84,56.5,71.07,14.34,31.97,18.43,68.44,12.17,108.39-.51,3.27-3.58,5.51-6.86,5-1.19-.19-2.24-.71-3.07-1.46-1.46-1.31-2.25-3.31-1.92-5.4,5.89-37.62,2.1-71.81-11.27-101.62-11.76-26.22-31.38-50.01-58.33-70.8l1.46,50.72c.1,3.59-2.72,6.58-6.31,6.69-1.74.05-3.33-.58-4.53-1.66-1.28-1.15-2.1-2.8-2.16-4.65l-1.91-66.15c-.06-1.95.77-3.83,2.25-5.1Z"/>
      <text class="cls-7" transform="translate(0 282.1)"><tspan class="cls-4" x="0" y="0">F</tspan><tspan x="29.35" y="0">ont</tspan><tspan class="cls-4" x="109.05" y="0">w</tspan><tspan x="148.3" y="0">eight </tspan><tspan class="cls-1" x="286.9" y="0">R</tspan><tspan class="cls-6" x="320.65" y="0">e</tspan><tspan class="cls-3" x="349.7" y="0">g</tspan><tspan x="381.75" y="0">u</tspan><tspan class="cls-5" x="412" y="0">l</tspan><tspan x="424.04" y="0">ar</tspan></text>
    </g>
  </g>
</svg>