<?xml version="1.0" encoding="UTF-8"?>
<svg id="Layer_2" data-name="Layer 2" xmlns="http://www.w3.org/2000/svg" viewBox="0 0 139.01 127.02">
  <defs>
    <style>
      .cls-1 {
        fill: #bc8b86;
      }

      .cls-1, .cls-2 {
        stroke-width: 0px;
      }

      .cls-3, .cls-4 {
        stroke: #000;
      }

      .cls-3, .cls-4, .cls-5 {
        stroke-miterlimit: 10;
      }

      .cls-3, .cls-5 {
        fill: #e1f9ff;
        stroke-width: 4px;
      }

      .cls-4 {
        fill: #ffe36c;
        stroke-width: 4.26px;
      }

      .cls-2 {
        fill: #000;
      }

      .cls-5 {
        stroke: #fff;
        stroke-linecap: round;
      }
    </style>
  </defs>
  <g id="Layer_1-2" data-name="Layer 1">
    <g>
      <g>
        <path class="cls-3" d="M10.62,53.66C-6.85,8.32,29.12-15.14,63.62,20.03L10.62,53.66Z"/>
        <path class="cls-3" d="M32.9,34.68C54.9-13.65,107.57-6.93,109.71,45.32l-76.82-10.64Z"/>
        <path class="cls-4" d="M2.13,77.22c0,28.39,24.9,47.67,55.97,47.67,31.07,0,67.11-19.28,67.11-47.67S90.05,28.58,58.99,28.58c-31.07,0-56.86,20.25-56.86,48.64Z"/>
        <circle class="cls-1" cx="15.41" cy="82.72" r="4.33"/>
        <circle class="cls-1" cx="63.32" cy="83.59" r="4.33"/>
        <path class="cls-2" d="M62.84,12.46c-3.63,0-6.58,2.95-6.58,6.58,0,.86.17,1.69.47,2.44-3.53,1.72-10.21,14.24-10.68,21.51-.35,5.47,5.42,4.39,5.81,1.35,1.8-9.53,4.41-15.18,8.76-19.11.69.25,1.43.39,2.21.39,3.63,0,6.58-2.95,6.58-6.58s-2.95-6.58-6.58-6.58ZM56.86,21.78c.32.7.76,1.34,1.29,1.88-.68-.53-1.24-1.18-1.29-1.88Z"/>
        <path class="cls-2" d="M13.4,19.04c0,3.63,2.95,6.58,6.58,6.58.78,0,1.52-.14,2.21-.39,4.36,3.94,6.96,9.58,8.76,19.11.39,3.04,6.16,4.12,5.81-1.35-.47-7.27-7.15-19.79-10.68-21.51.3-.76.47-1.58.47-2.44,0-3.63-2.95-6.58-6.58-6.58s-6.58,2.95-6.58,6.58ZM24.66,23.66c.53-.54.97-1.18,1.29-1.88-.05.7-.61,1.34-1.29,1.88Z"/>
        <path class="cls-2" d="M99.06,40.11c8.37,5.59,12.87,59.29,3.42,73.25,0,0,9.52-5.2,13.57-11.19,2.85-3.96,4.02-39.15-4.32-53.59l-12.67-8.47Z"/>
        <path class="cls-2" d="M79.04,32.32c10.02,6.78,15.42,71.89,4.09,88.82,0,0,11.08-.52,15.93-7.79,3.41-4.8,5.06-59.11-4.94-76.62l-15.09-4.41Z"/>
        <path class="cls-2" d="M124.54,67c2.86,5.79,1.75,14.69.61,15.83,0,0,11.27-5.7,12.61-6.55s1.96-4.42,0-5.53l-13.22-3.74Z"/>
        <ellipse class="cls-2" cx="29.96" cy="71.44" rx="4.88" ry="7.04"/>
        <ellipse class="cls-2" cx="46.04" cy="71.44" rx="4.88" ry="7.04"/>
        <path class="cls-2" d="M57.66,88.48s-4.56,1.94-7.77-3.22c-.02-.02-.03-.01-.05-.03-1.2-2.05-3.4-3.43-5.94-3.43-1.74,0-3.32.65-4.54,1.71-1.21-1.06-2.8-1.71-4.54-1.71-2.54,0-4.74,1.39-5.94,3.43-.02.01-.03,0-.05.03-3.2,5.16-7.77,3.22-7.77,3.22-1.44,7.13,9.91,7.11,9.91,7.11,1.77.12,3.84,0,3.84,0,1.74,0,3.32-.65,4.54-1.71,1.21,1.06,2.8,1.71,4.54,1.71,0,0,2.07.12,3.84,0,0,0,11.35.02,9.91-7.11Z"/>
        <path class="cls-2" d="M45.59,62.13s-2.73-.98,1.09-4.18c0,0-.25.61,0,.59,0,0,.25-.5.72-.59,0,0-.38.56-.06.61,0,0,2.78-.33,6.27.91,0,0,.77.5,1.78,1.2,0,0-3.34-.07-6,.4,0,0-2.65.47-3.81,1.06Z"/>
        <path class="cls-2" d="M32.6,62.13s2.73-.98-1.09-4.18c0,0,.25.61,0,.59,0,0-.25-.5-.72-.59,0,0,.38.56.06.61,0,0-2.78-.33-6.27.91,0,0-.77.5-1.78,1.2,0,0,3.34-.07,6,.4,0,0,2.65.47,3.81,1.06Z"/>
      </g>
      <g>
        <g>
          <circle class="cls-3" cx="22.09" cy="71.95" r="12.84"/>
          <path class="cls-3" d="M56.64,57.44c-7.09,0-12.84,5.75-12.84,12.84,0,.06,0,.12,0,.18h-8.62v3h8.88v-.52c1.22,5.82,6.38,10.19,12.56,10.19,7.09,0,12.84-5.75,12.84-12.84s-5.75-12.84-12.84-12.84Z"/>
        </g>
        <path class="cls-5" d="M18.59,66.32c-2.91,3.91-2.91,7.83,0,11.74"/>
      </g>
    </g>
  </g>
</svg>