<?xml version="1.0" encoding="UTF-8"?>
<svg id="Layer_2" data-name="Layer 2" xmlns="http://www.w3.org/2000/svg" viewBox="0 0 61.69 46.23">
  <defs>
    <style>
      .cls-1 {
        fill: none;
        stroke: #231f20;
        stroke-linecap: round;
        stroke-linejoin: round;
        stroke-width: 2px;
      }
    </style>
  </defs>
  <g id="Layer_2-2" data-name="Layer 2">
    <g id="Layer_1-2" data-name="Layer 1-2">
      <g>
        <line class="cls-1" x1="16.95" y1="26.53" x2="44.33" y2="26.53"/>
        <line class="cls-1" x1="17.19" y1="33.58" x2="44.57" y2="33.58"/>
        <path class="cls-1" d="m16.93,19.52c0-15,27.35-15,27.35,0,0,0-27.45-.07-27.35,0Z"/>
        <line class="cls-1" x1="16.95" y1="26.53" x2="44.33" y2="26.53"/>
        <path class="cls-1" d="m60.6,34.68c1.25,6.27-10.86,9.64-10.82-8.17,0,0,9.57,1.9,10.82,8.17"/>
        <path class="cls-1" d="m1.09,34.08c-1.25,6.27,10.86,9.64,10.82-8.17,0,0-9.57,1.9-10.82,8.17"/>
        <polyline class="cls-1" points="28.49 40.45 31.18 45.23 33.85 40.38"/>
        <path class="cls-1" d="m24.65,6.92s-1.27-5.36-5.22-5.6c-2.24-.14-4.9,1.66-3.97,5.17"/>
        <path class="cls-1" d="m34.64,6.61s1.27-5.36,5.22-5.6c2.24-.14,4.9,1.66,3.97,5.17"/>
      </g>
    </g>
  </g>
</svg>