<?xml version="1.0" encoding="UTF-8"?>
<svg id="Layer_2" data-name="Layer 2" xmlns="http://www.w3.org/2000/svg" viewBox="0 0 139.01 127.02">
  <defs>
    <style>
      .cls-1 {
        fill: #e1f9ff;
        stroke-width: 4px;
      }

      .cls-1, .cls-2, .cls-3, .cls-4 {
        stroke: #000;
        stroke-miterlimit: 10;
      }

      .cls-5 {
        fill: #f48978;
      }

      .cls-5, .cls-6, .cls-7 {
        stroke-width: 0px;
      }

      .cls-2 {
        fill: #ffe36c;
        stroke-width: 4.26px;
      }

      .cls-6 {
        fill: #000;
      }

      .cls-3 {
        fill: #282828;
        stroke-width: 2.54px;
      }

      .cls-4 {
        fill: #fff;
        stroke-width: 1.85px;
      }

      .cls-7 {
        fill: #f45858;
      }
    </style>
  </defs>
  <g id="Layer_1-2" data-name="Layer 1">
    <g>
      <path class="cls-1" d="M10.62,53.66C-6.85,8.32,29.12-15.14,63.62,20.03L10.62,53.66Z"/>
      <path class="cls-1" d="M32.9,34.68C54.9-13.65,107.57-6.93,109.71,45.32l-76.82-10.64Z"/>
      <path class="cls-2" d="M2.13,77.22c0,28.39,24.9,47.67,55.97,47.67s67.11-19.28,67.11-47.67S90.05,28.58,58.99,28.58c-31.07,0-56.86,20.25-56.86,48.64Z"/>
      <circle class="cls-5" cx="15.41" cy="82.72" r="4.33"/>
      <circle class="cls-5" cx="58.44" cy="82.72" r="4.33"/>
      <path class="cls-6" d="M62.84,12.46c-3.63,0-6.58,2.95-6.58,6.58,0,.86.17,1.69.47,2.44-3.53,1.72-10.21,14.24-10.68,21.51-.35,5.47,5.42,4.39,5.81,1.35,1.8-9.53,4.41-15.18,8.76-19.11.69.25,1.43.39,2.21.39,3.63,0,6.58-2.95,6.58-6.58s-2.95-6.58-6.58-6.58ZM56.86,21.78c.32.7.76,1.34,1.29,1.88-.68-.53-1.24-1.18-1.29-1.88Z"/>
      <path class="cls-6" d="M13.4,19.04c0,3.63,2.95,6.58,6.58,6.58.78,0,1.52-.14,2.21-.39,4.36,3.94,6.96,9.58,8.76,19.11.39,3.04,6.16,4.12,5.81-1.35-.47-7.27-7.15-19.79-10.68-21.51.3-.76.47-1.58.47-2.44,0-3.63-2.95-6.58-6.58-6.58s-6.58,2.95-6.58,6.58ZM24.66,23.66c.53-.54.97-1.18,1.29-1.88-.05.7-.61,1.34-1.29,1.88Z"/>
      <path class="cls-6" d="M99.06,40.11c8.37,5.59,12.87,59.29,3.42,73.25,0,0,9.52-5.2,13.57-11.19,2.85-3.96,4.02-39.15-4.32-53.59l-12.67-8.47Z"/>
      <path class="cls-6" d="M79.04,32.32c10.02,6.78,15.42,71.89,4.09,88.82,0,0,11.08-.52,15.93-7.79,3.41-4.8,5.06-59.11-4.94-76.62l-15.09-4.41Z"/>
      <path class="cls-6" d="M124.54,67c2.86,5.79,1.75,14.69.61,15.83,0,0,11.27-5.7,12.61-6.55s1.96-4.42,0-5.53l-13.22-3.74Z"/>
      <path class="cls-6" d="M31.88,69.1l-8.7-5.72c-.75-.49-1.76-.28-2.25.47s-.28,1.76.47,2.25l5.91,3.88-6.89,2.18c-.85.27-1.33,1.19-1.06,2.04.27.85,1.19,1.33,2.04,1.06l9.93-3.14c.19-.06.36-.16.51-.27.2-.12.38-.28.51-.49.49-.75.28-1.76-.47-2.25Z"/>
      <path class="cls-6" d="M43.22,69.1l8.7-5.72c.75-.49,1.76-.28,2.25.47s.28,1.76-.47,2.25l-5.91,3.88,6.89,2.18c.85.27,1.33,1.19,1.06,2.04-.27.85-1.19,1.33-2.04,1.06l-9.93-3.14c-.19-.06-.36-.16-.51-.27-.2-.12-.38-.28-.51-.49-.49-.75-.28-1.76.47-2.25Z"/>
      <path class="cls-3" d="M27.23,80.72c-2.67,0-4.31,3.48-2.87,6.14,2.61,4.84,7.2,8.06,12.42,8.06s9.81-3.21,12.42-8.06c1.43-2.65-.21-6.14-2.87-6.14h-19.1Z"/>
      <path class="cls-7" d="M45.66,89.7s-7.41,8.26-16.1,1.44c-1.01-1.49,15.03-3.21,16.1-1.44Z"/>
      <path class="cls-4" d="M29.15,81.92h13.33c0,4.93-13.44,6.78-13.33,0Z"/>
    </g>
  </g>
</svg>