<?xml version="1.0" encoding="UTF-8"?>
<svg id="Layer_2" data-name="Layer 2" xmlns="http://www.w3.org/2000/svg" viewBox="0 0 46.13 49.57">
  <defs>
    <style>
      .cls-1 {
        fill: none;
        stroke: #231f20;
        stroke-miterlimit: 10;
        stroke-width: 2px;
      }
    </style>
  </defs>
  <g id="Layer_2-2" data-name="Layer 2">
    <path class="cls-1" d="m21.03,1.85L1.84,21.2c-.54.54-.84,1.28-.84,2.05v22.42c0,1.6,1.29,2.9,2.87,2.9h9.39c1.59,0,2.87-1.3,2.87-2.9v-7.88c0-1.6,1.29-2.9,2.87-2.9h8.11c1.59,0,2.87,1.3,2.87,2.9v7.88c0,1.6,1.29,2.9,2.87,2.9h9.39c1.59,0,2.87-1.3,2.87-2.9v-22.42c0-.77-.3-1.51-.84-2.05L25.1,1.85c-1.12-1.13-2.94-1.13-4.06,0Z"/>
  </g>
</svg>