<?xml version="1.0" encoding="UTF-8"?>
<svg id="Layer_2" data-name="Layer 2" xmlns="http://www.w3.org/2000/svg" viewBox="0 0 55.74 47.58">
  <defs>
    <style>
      .cls-1, .cls-2 {
        fill: none;
      }

      .cls-1, .cls-3 {
        stroke-width: 0px;
      }

      .cls-2 {
        stroke: #231f20;
        stroke-linecap: round;
        stroke-linejoin: round;
        stroke-width: 2px;
      }

      .cls-3 {
        fill: #231f20;
      }
    </style>
  </defs>
  <g id="Layer_2-2" data-name="Layer 2">
    <g>
      <path class="cls-1" d="m24.26,35.89c2.22,5.74,7.78,9.83,14.29,9.83,5.24,0,8.26-2.36,8.29-2.39.26-.21.61-.26.92-.14,2.11.81,4.09,1.4,5.34,1.74-.24-1.29-.69-3.37-1.44-5.78-.08-.27-.04-.56.11-.79.02-.03,2.11-3.27,2.11-7.97,0-8.45-6.88-15.32-15.33-15.32-.68,0-1.34.06-1.99.14.18,1.05.3,2.11.3,3.21,0,8.12-5.29,15.02-12.59,17.46Z"/>
      <path class="cls-3" d="m55.74,30.39c0-9.48-7.71-17.19-17.19-17.19-.82,0-1.62.08-2.41.19C33.94,5.67,26.84,0,18.43,0,8.27,0,0,8.27,0,18.43c0,4.66,1.68,8.08,2.34,9.23-1.29,4.27-1.72,7.44-1.73,7.58-.04.32.08.65.32.87.24.22.58.31.9.23.14-.03,3.25-.75,6.95-2.14,1.19.79,4.54,2.65,9.66,2.65,1.39,0,2.73-.17,4.03-.46,2.44,6.52,8.72,11.19,16.09,11.19,4.77,0,7.89-1.74,9.01-2.48,3.45,1.29,6.36,1.96,6.48,1.99.3.07.61-.01.84-.22.23-.21.34-.51.3-.81-.02-.13-.42-3.08-1.62-7.07.61-1.07,2.18-4.26,2.18-8.61Zm-33.87,4.09c-1.11.24-2.26.37-3.44.37-5.62,0-8.85-2.53-8.88-2.56-.18-.15-.4-.22-.63-.22-.12,0-.24.02-.36.07-2.26.87-4.38,1.5-5.72,1.87.26-1.38.74-3.61,1.54-6.19.09-.29.04-.6-.12-.85-.02-.03-2.26-3.51-2.26-8.54C2,9.37,9.37,2,18.43,2c7.45,0,13.74,4.98,15.75,11.79.17.59.31,1.2.42,1.82.16.92.26,1.86.26,2.82,0,7.22-4.69,13.36-11.19,15.56-.59.2-1.18.37-1.79.5Zm25.89,8.71c-.31-.12-.66-.06-.92.14-.03.02-3.05,2.39-8.29,2.39-6.51,0-12.07-4.09-14.29-9.83,7.31-2.45,12.59-9.34,12.59-17.46,0-1.1-.11-2.17-.3-3.21.65-.09,1.32-.14,1.99-.14,8.45,0,15.33,6.87,15.33,15.32,0,4.69-2.09,7.94-2.11,7.97-.15.23-.2.52-.11.79.75,2.41,1.2,4.49,1.44,5.78-1.25-.34-3.22-.93-5.34-1.74Z"/>
      <path class="cls-2" d="m14.37,10.48s.93-1.09,3.13-1.09,4.21,1.69,4.21,4.6-2.33,4.31-4.09,4.31c.03,0,0,4.69,0,4.69"/>
      <circle class="cls-3" cx="17.65" cy="27.62" r="1.66"/>
    </g>
  </g>
</svg>