<?xml version="1.0" encoding="UTF-8"?>
<svg id="Layer_2" data-name="Layer 2" xmlns="http://www.w3.org/2000/svg" viewBox="0 0 71.98 117.94">
  <defs>
    <style>
      .cls-1 {
        fill: #231f20;
        font-family: Calibri, Calibri;
        font-size: 12px;
      }

      .cls-2 {
        letter-spacing: -.01em;
      }

      .cls-3, .cls-4 {
        fill: none;
        stroke: #231f20;
        stroke-miterlimit: 10;
        stroke-width: 2px;
      }

      .cls-5 {
        fill: #ffc93d;
      }

      .cls-5, .cls-6 {
        stroke-width: 0px;
      }

      .cls-4 {
        stroke-linecap: round;
      }

      .cls-6 {
        fill: #fdebac;
      }
    </style>
  </defs>
  <g id="Layer_2-2" data-name="Layer 2">
    <g>
      <rect class="cls-5" x="1" y="26.65" width="70.98" height="70.98"/>
      <rect class="cls-6" x="10.07" y="35.33" width="52.65" height="53.88"/>
      <g>
        <path class="cls-3" d="m16.42,47.39c.2-2.18,2.16-4.34,4.3-4.76,1.43-.28,2.55.72,3.58,1.75,2.79,2.79,7.31.66,7.31-3.47,0-5.79,9.54-5.79,9.54,0,0,4.16,3.91,6.34,7.05,3.19,4.13-4.13,10.86,2.61,6.73,6.73-3.02,3.02-1.37,7.05,2.81,7.05,6.64,0,6.64,8.68,0,8.68-3.81,0-5.74,4.14-3.24,6.64,5.18,5.18-1.67,12.04-6.85,6.85-2.62-2.62-6.47-1.14-6.47,2.47,0,7.53-9.28,7.53-9.28,0,0-3.57-3.67-5.73-6.34-3.06-5.8,5.8-12.78-1.18-6.98-6.98,2.44-2.04.02-6.03-2.81-5.53-7.39.26-7.71-8.8-.32-9.06,3.26-.37,5.05-4.82,2.7-7.17-.95-.95-1.86-1.99-1.74-3.32Z"/>
        <circle class="cls-3" cx="36.4" cy="62.36" r="7.98"/>
      </g>
      <line class="cls-4" x1="10.07" y1="98.48" x2="62.73" y2="98.48"/>
      <line class="cls-4" x1="62.73" y1="92.87" x2="62.73" y2="104.1"/>
      <line class="cls-4" x1="1" y1="18.65" x2="70.46" y2="18.65"/>
      <line class="cls-4" x1="70.46" y1="13.04" x2="70.46" y2="24.27"/>
      <line class="cls-4" x1="1" y1="13.04" x2="1" y2="24.27"/>
      <line class="cls-4" x1="10.07" y1="92.87" x2="10.07" y2="104.1"/>
      <text class="cls-1" transform="translate(22.72 114.19)"><tspan x="0" y="0">3 </tspan><tspan class="cls-2" x="8.79" y="0">r</tspan><tspan x="12.82" y="0">em</tspan></text>
      <text class="cls-1" transform="translate(22.72 9.79)"><tspan x="0" y="0">4 </tspan><tspan class="cls-2" x="8.79" y="0">r</tspan><tspan x="12.82" y="0">em</tspan></text>
    </g>
  </g>
</svg>