<?xml version="1.0" encoding="UTF-8"?>
<svg id="Layer_2" data-name="Layer 2" xmlns="http://www.w3.org/2000/svg" viewBox="0 0 119.07 124.77">
  <defs>
    <style>
      .cls-1 {
        fill: #ffc93d;
        stroke-width: 0px;
      }
    </style>
  </defs>
  <g id="Layer_1-2" data-name="Layer 1">
    <g>
      <path class="cls-1" d="M.23,77.72c-.55-7.16-.99-25.44,10.05-44.02,3.2-5.39,13.38-18.76,29.09-27.21,57.54-22.13,83.12,17.84,79.34,38.09-.55,2.94-2.08,21.63-42.47,17.89-25.35-2.35-50.69,2.73-76.01,15.25Z"/>
      <path class="cls-1" d="M19.61,104.24c1.35-3.13,5.27-10.89,14.83-15.75,2.78-1.41,10.75-4.32,20.3-3.72,32.99,5.89,36.41,29.31,30,36.78-.93,1.09-5.89,8.49-24.7-3.69-11.8-7.65-25.28-12.19-40.42-13.61Z"/>
    </g>
  </g>
</svg>