<?xml version="1.0" encoding="UTF-8"?>
<svg id="Layer_2" data-name="Layer 2" xmlns="http://www.w3.org/2000/svg" viewBox="0 0 757.43 831.7">
  <defs>
    <style>
      .cls-1 {
        fill: #56544f;
      }

      .cls-1, .cls-2, .cls-3, .cls-4, .cls-5, .cls-6, .cls-7 {
        stroke-width: 0px;
      }

      .cls-2 {
        fill: #d3b494;
      }

      .cls-3 {
        fill: #aa9983;
      }

      .cls-4 {
        fill: #b5912a;
      }

      .cls-5 {
        fill: #514b45;
      }

      .cls-6 {
        fill: #ddbfa4;
      }

      .cls-7 {
        fill: #feecac;
      }
    </style>
  </defs>
  <g id="Layer_1-2" data-name="Layer 1">
    <g>
      <circle class="cls-7" cx="378.72" cy="378.72" r="378.72"/>
      <path class="cls-2" d="M247.39,544.21s6.58,61.05-5.34,103.7c0,0,57.08,21.77,84.28,21.2s71.72-24.48,71.72-24.48l-13.02-97.81-137.64-2.61Z"/>
      <path class="cls-3" d="M247.79,548.54s5.75,48.81,63.28,66.52,80.08-22.27,80.08-22.27l-143.36-44.25Z"/>
      <path class="cls-2" d="M481.29,383.78c25.29,55.85,10.99,153.15-24.92,187.7-25.25,24.29-87.14,22.82-121.37,22.82-82.91,0-176.38-120.14-176.38-224.55,0-126.55,50.04-199.06,175.66-199.06,70.45,0,133.29,54.29,149.47,136.72,2.86,14.58-10.21,59.23-2.45,76.38Z"/>
      <ellipse class="cls-2" cx="207.09" cy="512.37" rx="34.21" ry="56.17" transform="translate(-226.31 169.49) rotate(-29.64)"/>
      <path class="cls-3" d="M228.75,519.51s-36.77-55.22-50.2-28.31c17.84-4.62,50.2,28.31,50.2,28.31Z"/>
      <ellipse class="cls-5" cx="366.56" cy="394.89" rx="13.02" ry="31.91"/>
      <ellipse class="cls-5" cx="467.22" cy="369.74" rx="10.92" ry="27.7"/>
      <path class="cls-5" d="M322.27,378.72c18.18-5.12,51.88-24.38,61.25-45.35,5.55-12.27-8.04-17.14-16.89.32-8.85,17.46-44.37,45.03-44.37,45.03Z"/>
      <path class="cls-5" d="M443.99,294.16c-11.23-.64-15.32,12.77,1.53,14.3s34.18-1.69,38.54,6.69c.56-7.72-11.47-13.84-11.47-13.84,0,0-10.75-6.13-28.6-7.15Z"/>
      <path class="cls-3" d="M411.67,457.61c7.15-4.09,13.58,2.51,28.9.98s18.08-14.3,18.08-14.3c0,0,3.86,12.95-10,19.94-4.98,2.51-17.54.5-23.67-3.08s-13.31-3.54-13.31-3.54Z"/>
      <path class="cls-5" d="M366.56,513.99c21.32-5.11,54.77,2.47,67.15,14.26-15.19-6.09-67.15-14.26-67.15-14.26Z"/>
      <path class="cls-4" d="M246.81,649.12c-3.3-.8-6.7-1.04-10.08-.71-24.7,2.41-127.63,13.67-146.48,35.88-21.45,25.28-65.12,88.28-51.32,117.81,17.54,37.52,406.5,30.35,532.81,26.13,19.23-.64,32.99-18.76,28.51-37.47-10.4-43.43-30.48-111.72-55.79-121.63-30.26-11.86-105.56-24.12-133.59-28.42-6.49-1-13.1.16-18.9,3.23-11.76,6.22-35.39,16.17-65.63,15.72-34.87-.51-67.6-7.64-79.53-10.53Z"/>
      <g>
        <path class="cls-3" d="M471.28,625.22c30.65-10.31-39.07-46.16-72.08-53.04-33.01-6.88-52.38-17.64-60.15-11.94-7.78,5.69,2.46,22.66,24.77,28.68s34.14,2,51.57,13.79,41.41,27.39,55.89,22.51Z"/>
        <path class="cls-6" d="M505.76,645.57c10.78-30.1-14.68-87.57-21.01-102.23-6.33-14.66-15.9,2.84-13.06,18.17,2.84,15.33,4.54,38.62,4.54,38.62,0,0-10.79,14.2-11.93,32.37,0,0,27.83,51.11,41.46,13.06Z"/>
        <path class="cls-6" d="M473.62,623.86c30.65-10.31-39.07-46.16-72.08-53.04-33.01-6.88-52.89-16.73-60.66-11.04-7.78,5.69,5.26,20.94,27.56,26.96,22.3,6.02,26.39,7.02,43.83,18.81,17.43,11.79,46.87,23.17,61.36,18.3Z"/>
        <path class="cls-3" d="M378.72,649.99c-5.88-20.09,14.42-18.56,10.5-21.03-9.53-6.8-7.67-14.44-6.85-19.41s6.21-10.47,23.78-9.31c0,0,82.79,1.12,86.48,7.89l-113.9,41.85Z"/>
        <path class="cls-6" d="M410.67,598.89c-17.56-1.16-22.96,4.33-23.78,9.31s.09,14.89,9.62,21.69c3.37,4.1-10.42.53-14.34,8.1-3.91,7.57-2.57,20.42,10.9,25.38,4.49,2.15-9.37-.58-13.33,5.42-2.44,3.69-1.45,14.55,13.25,20.73,21.09,8.87,56.81,30.12,75.61,13.47,18.81-16.65,32.22-89.45,28.54-96.22-3.68-6.76-86.48-7.89-86.48-7.89Z"/>
        <path class="cls-6" d="M506.98,611.7s5.29,30.87,6.81,49.43c1.51,18.56,61.84,166.96,61.84,166.96l-91.62,2.6s.67-107.04-27.35-122.57l50.32-96.43Z"/>
      </g>
      <path class="cls-1" d="M214.79,469.97l27.27-4.62s-22.36-95.75-21.59-114.83,13.4-120.95,146.11-123.25c95.17-.77,96.37,23.06,96.37,23.06,0,0,18.72-26.89,11.82-42.98s-166.25-166.09-293.64-42.12c-159.32,155.04-8.83,304.74-8.83,304.74,0,0,10.79-19.25,42.51,0Z"/>
      <path class="cls-4" d="M552.25,470.01c-6-2.03-10.54-5.49-13.63-10.39-3.1-4.9-3.16-11.72-.2-20.49,3.04-8.99,7.25-14.43,12.65-16.34,5.39-1.9,11.08-1.84,17.08.19,5.99,2.02,10.55,5.43,13.69,10.21,3.13,4.78,3.18,11.67.15,20.66-2.96,8.76-7.16,14.15-12.59,16.16-5.44,2.02-11.15,2.01-17.14-.01ZM584.29,342.16c15.7-.86,28.69-3.79,38.99-8.78,10.29-5,18.55-11.39,24.78-19.17,6.22-7.78,10.9-16.28,14.01-25.5,4.05-11.98,4.3-22.62.77-31.91-3.54-9.29-12.11-16.23-25.71-20.82-9.45-3.19-17.76-3.69-24.92-1.49-7.17,2.2-13.09,6.24-17.76,12.1-4.68,5.87-8.38,12.84-11.11,20.9-8.3-2.8-14.54-6.97-18.7-12.48-4.17-5.52-5.05-11.85-2.63-19,1.87-5.53,4.95-10.27,9.23-14.21,4.28-3.95,9.7-6.87,16.25-8.76,6.55-1.89,14.18-2.46,22.92-1.7,8.73.77,18.63,3.02,29.69,6.76,14.52,4.91,26.59,11.75,36.21,20.52,9.62,8.78,16.02,18.9,19.21,30.37,3.18,11.48,2.56,23.79-1.88,36.92-4.28,12.68-10.71,22.96-19.29,30.85-8.58,7.89-19.01,13.87-31.29,17.93-12.29,4.07-26.36,6.76-42.22,8.08l-14.24,38.72-18.67-6.31,16.38-53.02Z"/>
    </g>
  </g>
</svg>